<?xml version="1.0" standalone="no"?><!DOCTYPE svg PUBLIC "-//W3C//DTD SVG 1.1//EN" "http://www.w3.org/Graphics/SVG/1.1/DTD/svg11.dtd"><svg t="1651155029302" class="icon" viewBox="0 0 1024 1024" version="1.1" xmlns="http://www.w3.org/2000/svg" p-id="2735" xmlns:xlink="http://www.w3.org/1999/xlink" width="32" height="32"><defs><style type="text/css"></style></defs><path d="M512 213.333333c134.101333 0 249.450667 88.96 286.357333 213.546667A192 192 0 0 1 789.333333 810.666667a42.666667 42.666667 0 1 1 0-85.333334 106.666667 106.666667 0 1 0-17.578666-211.904 42.666667 42.666667 0 0 1-49.109334-35.370666C706.261333 375.338667 617.194667 298.666667 512 298.666667a213.205333 213.205333 0 0 0-185.024 107.050666 42.666667 42.666667 0 0 1-39.744 21.269334A149.333333 149.333333 0 1 0 277.333333 725.333333a42.666667 42.666667 0 1 1 0 85.333334C147.733333 810.666667 42.666667 705.6 42.666667 576c0-126.037333 99.370667-228.864 224.021333-234.432A298.410667 298.410667 0 0 1 512 213.333333z m42.666667 358.997334v195.797333A42.496 42.496 0 0 1 512 810.666667c-23.573333 0-42.666667-19.093333-42.666667-42.538667v-195.797333l-55.168 55.168a42.666667 42.666667 0 0 1-60.330666-60.330667l128-128a42.666667 42.666667 0 0 1 60.330666 0l128 128a42.666667 42.666667 0 0 1-60.330666 60.330667L554.666667 572.330667z" p-id="2736" fill="#d4237a"></path></svg>