<?xml version="1.0" standalone="no"?><!DOCTYPE svg PUBLIC "-//W3C//DTD SVG 1.1//EN" "http://www.w3.org/Graphics/SVG/1.1/DTD/svg11.dtd"><svg t="1654251464320" class="icon" viewBox="0 0 1024 1024" version="1.1" xmlns="http://www.w3.org/2000/svg" p-id="2162" xmlns:xlink="http://www.w3.org/1999/xlink" width="128" height="128"><defs><style type="text/css"></style></defs><path d="M302.348186 44.311245l127.714918 0 0 127.710618-127.714918 0 0-127.710618ZM430.06208 172.021862l127.721984 0 0 127.707546-127.721984 0 0-127.707546ZM557.784064 299.729408l127.711846 0 0 127.709594-127.711846 0 0-127.709594ZM685.49591 427.43808l127.714918 0 0 127.716762-127.714918 0 0-127.716762ZM557.784064 555.154842l127.711846 0 0 127.701402-127.711846 0 0-127.701402ZM430.06208 682.856346l127.721984 0 0 127.717786-127.721984 0 0-127.717786ZM302.348186 818.553856 302.348186 938.280755 302.348186 946.261504 430.06208 946.261504 430.06208 938.280755 430.06208 818.553856 430.06208 810.574131 302.348186 810.574131Z" p-id="2163" fill="#999999"></path></svg>