<?xml version="1.0" standalone="no"?><!DOCTYPE svg PUBLIC "-//W3C//DTD SVG 1.1//EN" "http://www.w3.org/Graphics/SVG/1.1/DTD/svg11.dtd"><svg t="1653195587634" class="icon" viewBox="0 0 1024 1024" version="1.1" xmlns="http://www.w3.org/2000/svg" p-id="7507" xmlns:xlink="http://www.w3.org/1999/xlink" width="128" height="128"><defs><style type="text/css"></style></defs><path d="M1024 354c0-1.8-0.2-3.6-0.5-5.4V158c0-51.8-42.2-94-94-94H798V30c0-16.5-13.5-30-30-30s-30 13.5-30 30v34H286V30c0-16.5-13.5-30-30-30s-30 13.5-30 30v34H94.5c-51.8 0-94 42.2-94 94v190.6c-0.3 1.8-0.5 3.6-0.5 5.4 0 1.8 0.2 3.6 0.5 5.4V930c0 51.8 42.2 94 94 94h835c51.8 0 94-42.2 94-94V359.4c0.3-1.8 0.5-3.6 0.5-5.4zM94.5 124H226v38c0 16.5 13.5 30 30 30s30-13.5 30-30v-38h452v38c0 16.5 13.5 30 30 30s30-13.5 30-30v-38h131.5c18.7 0 34 15.3 34 34v166h-903V158c0-18.7 15.3-34 34-34z m835 840h-835c-18.7 0-34-15.3-34-34V384h903v546c0 18.7-15.3 34-34 34z" fill="#25af08" p-id="7508"></path><path d="M697.3 511.6L444.1 764.8 326.7 647.4c-11.7-11.7-30.8-11.7-42.4 0-11.7 11.7-11.7 30.8 0 42.4l138.6 138.6c7.6 7.6 18.3 10.2 28.1 8 0.2 0 0.4-0.1 0.6-0.1 5.1-1.3 9.8-3.9 13.8-7.8L739.7 554c11.7-11.7 11.7-30.8 0-42.4-11.7-11.7-30.8-11.7-42.4 0z" fill="#25af08" p-id="7509"></path></svg>